<svg width="120" height="120" viewBox="0 0 120 120" fill="none" xmlns="http://www.w3.org/2000/svg">
<rect width="120" height="120" rx="20" fill="#00473B"/>
<path d="M39.32 92.6C33.9867 92.6 29.72 91.6133 26.52 89.64C23.3733 87.6667 21.8 85.0267 21.8 81.72C21.8 78.36 23.6933 76.68 27.48 76.68C28.3867 76.68 29.32 76.76 30.28 76.92C31.24 77.1333 32.1733 77.4267 33.08 77.8C33.08 81.3733 33.7733 84.04 35.16 85.8C36.5467 87.6133 38.6533 88.52 41.48 88.52C43.88 88.52 45.7733 87.9067 47.16 86.68C48.6 85.5067 49.32 83.9333 49.32 81.96C49.32 80.4667 48.9733 79.2933 48.28 78.44C47.64 77.5867 46.4933 76.92 44.84 76.44C43.24 75.96 40.9733 75.5867 38.04 75.32C33.7733 74.8933 30.76 74.2 29 73.24C27.2933 72.28 26.44 70.8133 26.44 68.84C26.44 66.8667 27.1867 65.0267 28.68 63.32C30.1733 61.6133 32.2267 60.28 34.84 59.32L36.44 60.28C35.96 60.8133 35.5867 61.3467 35.32 61.88C35.1067 62.4133 35 62.9733 35 63.56C35 64.2 35.1867 64.7067 35.56 65.08C35.9333 65.4533 36.6533 65.7733 37.72 66.04C38.84 66.2533 40.4667 66.4667 42.6 66.68C48.3067 67.2133 52.52 68.44 55.24 70.36C58.0133 72.2267 59.4 74.92 59.4 78.44C59.4 81.32 58.5733 83.8267 56.92 85.96C55.2667 88.0933 52.9467 89.72 49.96 90.84C46.9733 92.0133 43.4267 92.6 39.32 92.6ZM37.72 61.64C32.92 61.64 29.1333 60.52 26.36 58.28C23.5867 55.9867 22.2 52.84 22.2 48.84C22.2 45.9067 22.9467 43.3467 24.44 41.16C25.9867 38.92 28.12 37.1867 30.84 35.96C33.56 34.68 36.7067 34.04 40.28 34.04C43.5867 34.04 46.44 34.6 48.84 35.72C51.24 36.7867 53.1067 38.3067 54.44 40.28C55.7733 42.2 56.44 44.4667 56.44 47.08C56.44 49.9067 55.64 52.4133 54.04 54.6C52.44 56.7867 50.2267 58.52 47.4 59.8C44.6267 61.0267 41.4 61.64 37.72 61.64ZM39.48 57.24C41.1333 57.24 42.44 56.4933 43.4 55C44.36 53.4533 44.84 51.2933 44.84 48.52C44.84 45.32 44.3333 42.84 43.32 41.08C42.3067 39.32 40.8667 38.44 39 38.44C37.4 38.44 36.12 39.24 35.16 40.84C34.2533 42.3867 33.8 44.5467 33.8 47.32C33.8 50.5733 34.28 53.0533 35.24 54.76C36.2 56.4133 37.6133 57.24 39.48 57.24ZM55.24 39.64C54.4933 39.64 53.56 39.6133 52.44 39.56C51.3733 39.4533 50.3067 39.32 49.24 39.16C48.2267 38.9467 47.4 38.76 46.76 38.6L45.88 36.52L58.84 31.8C59.2133 32.44 59.5067 33.1867 59.72 34.04C59.9867 34.84 60.12 35.56 60.12 36.2C60.12 38.4933 58.4933 39.64 55.24 39.64ZM80.5925 71.96C76.9658 71.96 73.7392 71.2133 70.9125 69.72C68.1392 68.1733 65.9792 66.0667 64.4325 63.4C62.8858 60.68 62.1125 57.56 62.1125 54.04C62.1125 50.2533 62.9925 46.84 64.7525 43.8C66.5125 40.76 68.8858 38.3867 71.8725 36.68C74.9125 34.92 78.2992 34.04 82.0325 34.04C85.2858 34.04 88.1125 34.7067 90.5125 36.04C92.9125 37.3733 94.7525 39.24 96.0325 41.64C97.3658 43.9867 98.0325 46.7867 98.0325 50.04C98.0325 51.48 97.8458 52.44 97.4725 52.92C97.0992 53.3467 96.4325 53.56 95.4725 53.56H70.6725V49.16L88.1125 48.68L87.1525 50.04C87.2058 47.5333 86.9925 45.4 86.5125 43.64C86.0858 41.88 85.4458 40.5733 84.5925 39.72C83.7392 38.8133 82.6725 38.36 81.3925 38.36C79.4725 38.36 77.8992 39.4533 76.6725 41.64C75.4458 43.7733 74.8325 46.76 74.8325 50.6C74.8325 53.8 75.2858 56.52 76.1925 58.76C77.0992 60.9467 78.4325 62.6267 80.1925 63.8C81.9525 64.92 84.1125 65.48 86.6725 65.48C88.4858 65.48 90.2192 65.1333 91.8725 64.44C93.5258 63.7467 95.2058 62.6533 96.9125 61.16L98.2725 64.52C97.0458 65.96 95.4725 67.2667 93.5525 68.44C91.6858 69.56 89.6325 70.4133 87.3925 71C85.2058 71.64 82.9392 71.96 80.5925 71.96Z" fill="#A0C34E"/>
</svg>
